<svg xmlns="http://www.w3.org/2000/svg" width="76" height="19.246" viewBox="0 0 76 19.246">
  <g id="Grupo_343" data-name="Grupo 343" transform="translate(-25 -21)">
    <g id="Grupo_289" data-name="Grupo 289" transform="translate(-58 -13.446)">
      <path id="Trazado_105" data-name="Trazado 105" d="M120.972,574.2l-.12,1.435a3.862,3.862,0,0,0-3.348-1.654,4.183,4.183,0,0,0-3.308,1.455,5.339,5.339,0,0,0-1.276,3.707,5.409,5.409,0,0,0,1.276,3.707,4.212,4.212,0,0,0,3.308,1.455,4.6,4.6,0,0,0,1.722-.322v-2.041a2.628,2.628,0,0,1-1.324.35,2.85,2.85,0,0,1-2.79-3.149c0-1.854,1.116-3.149,2.77-3.149a2.729,2.729,0,0,1,2.013.857,2.941,2.941,0,0,1,.877,2.212l-.06,5.062a2.525,2.525,0,0,1-2.77,2.73c-1.535,0-2.412-.578-2.671-1.754h-2.112c.379,2.491,2.232,3.687,4.783,3.687a4.878,4.878,0,0,0,3.547-1.315,4.5,4.5,0,0,0,1.355-3.408V574.2Z" transform="translate(-29.92 -535.098)" fill="#404040"/>
      <g id="Grupo_35" data-name="Grupo 35" transform="translate(94.26 34.446)">
        <path id="Trazado_98" data-name="Trazado 98" d="M193.357,573.982a5.047,5.047,0,0,0-3.727,1.475,5.655,5.655,0,0,0,0,7.573,5.447,5.447,0,0,0,7.454,0,5.6,5.6,0,0,0,0-7.573A5.046,5.046,0,0,0,193.357,573.982Zm2.172,7.633a2.719,2.719,0,0,1-2.152.937,2.79,2.79,0,0,1-2.172-.937,3.778,3.778,0,0,1,0-4.743,2.79,2.79,0,0,1,2.172-.937,2.719,2.719,0,0,1,2.152.937,3.777,3.777,0,0,1,0,4.743Z" transform="translate(-177.059 -569.544)" fill="#404040"/>
        <rect id="Rectángulo_217" data-name="Rectángulo 217" width="2.112" height="10.084" transform="translate(34.467 4.658)" fill="#404040"/>
        <path id="Trazado_99" data-name="Trazado 99" d="M267.052,560.034a1.344,1.344,0,0,0-1.355,1.355,1.378,1.378,0,0,0,2.332.937A1.346,1.346,0,0,0,267.052,560.034Z" transform="translate(-231.528 -559.741)" fill="#404040"/>
        <path id="Trazado_100" data-name="Trazado 100" d="M285.143,573.982a5.047,5.047,0,0,0-3.727,1.475,5.655,5.655,0,0,0,0,7.573,5.447,5.447,0,0,0,7.454,0,5.6,5.6,0,0,0,0-7.573A5.047,5.047,0,0,0,285.143,573.982Zm2.172,7.633a2.719,2.719,0,0,1-2.152.937,2.79,2.79,0,0,1-2.172-.937,3.778,3.778,0,0,1,0-4.743,2.79,2.79,0,0,1,2.172-.937,2.719,2.719,0,0,1,2.152.937,3.778,3.778,0,0,1,0,4.743Z" transform="translate(-241.555 -569.544)" fill="#404040"/>
        <path id="Trazado_101" data-name="Trazado 101" d="M320.188,566.408h-2.132l-.02,2.471h-1.774v1.953h1.774l-.04,5.241c-.02,2.093,1,3.029,3.069,3.029a4.6,4.6,0,0,0,1.554-.219V577.01a3.8,3.8,0,0,1-1.136.159c-1.036,0-1.375-.439-1.375-1.555l.04-4.783h2.471v-1.953h-2.451Z" transform="translate(-267.062 -564.221)" fill="#404040"/>
        <path id="Trazado_102" data-name="Trazado 102" d="M232.911,563.492a4.488,4.488,0,0,0-1.7.323l-.024,2.075a2.537,2.537,0,0,1,1.344-.385,3.28,3.28,0,0,1,.02,6.516,2.773,2.773,0,0,1-2.033-.857,3.215,3.215,0,0,1-.837-2.332l.006-1.551h0l.016-3.675h0l.018-4.554H227.61V573.8h1.833l.16-1.415a3.72,3.72,0,0,0,3.328,1.634,4.275,4.275,0,0,0,3.368-1.494,5.564,5.564,0,0,0,1.316-3.767,5.476,5.476,0,0,0-1.316-3.747A4.27,4.27,0,0,0,232.911,563.492Z" transform="translate(-204.769 -559.054)" fill="#404040"/>
        <path id="Trazado_103" data-name="Trazado 103" d="M345.95,573.982a3.851,3.851,0,0,0-2.75,1,3.464,3.464,0,0,0-1.116,2.491h2.052a1.635,1.635,0,0,1,1.814-1.594c1.1,0,1.654.6,1.654,1.813V580.1a2.689,2.689,0,0,1-.479,1.594,2.016,2.016,0,0,1-1.833.977c-.877,0-1.375-.439-1.375-1.136,0-.658.419-1.1,1.276-1.276l.926-.2.007-1.647-1.391.251c-1.973.379-2.95,1.355-2.95,2.97a2.748,2.748,0,0,0,3.009,2.87,3.186,3.186,0,0,0,2.969-1.535l.1,1.315h1.873v-6.636C349.737,575.277,348.322,573.982,345.95,573.982Z" transform="translate(-284.997 -569.544)" fill="#404040"/>
        <path id="Trazado_104" data-name="Trazado 104" d="M155.712,573.982a4.576,4.576,0,0,0-3.567,1.495,6,6,0,0,0,0,7.593,4.729,4.729,0,0,0,3.567,1.435,4.419,4.419,0,0,0,4.544-3.308h-2.072a2.312,2.312,0,0,1-2.412,1.435c-1.574,0-2.908-.944-2.908-3.485,0-2.373,1.314-3.311,2.829-3.311a2.369,2.369,0,0,1,2.511,2.491h-3.852v1.654h5.984v-.817C160.335,575.816,158.482,573.982,155.712,573.982Z" transform="translate(-150.789 -569.544)" fill="#404040"/>
      </g>
    </g>
  </g>
</svg>
